<?xml version="1.0" encoding="UTF-8"?>
<svg width="248px" height="201px" viewBox="0 0 248 201" version="1.1" xmlns="http://www.w3.org/2000/svg" xmlns:xlink="http://www.w3.org/1999/xlink">
    <!-- Generator: Sketch 41.2 (35397) - http://www.bohemiancoding.com/sketch -->
    <title>Hi</title>
    <desc>Created with Sketch.</desc>
    <defs></defs>
    <g id="Header-Ideas" stroke="none" stroke-width="1" fill="none" fill-rule="evenodd">
        <g id="Desktop" transform="translate(-50.000000, -311.000000)" fill="#2B272D">
            <g id="Header">
                <path d="M214.592,512 L214.592,332 L168.8,332 L168.8,401.984 L96.512,401.984 L96.512,332 L50.72,332 L50.72,512 L96.512,512 L96.512,440.576 L168.8,440.576 L168.8,512 L214.592,512 Z M297.536,335.456 C297.536,319.904 287.744,311.552 271.328,311.552 C255.2,311.552 245.12,319.904 245.12,335.456 C245.12,350.72 255.2,359.072 271.328,359.072 C287.744,359.072 297.536,350.72 297.536,335.456 Z M293.504,512 L293.504,374.912 L249.152,380.384 L249.152,512 L293.504,512 Z" id="Hi"></path>
            </g>
        </g>
    </g>
</svg>